<?xml version="1.0" encoding="utf-8" standalone="no"?>
<!DOCTYPE svg PUBLIC "-//W3C//DTD SVG 1.1//EN"
  "http://www.w3.org/Graphics/SVG/1.1/DTD/svg11.dtd">
<svg xmlns:xlink="http://www.w3.org/1999/xlink" width="496.623437pt" height="243.034375pt" viewBox="0 0 496.623437 243.034375" xmlns="http://www.w3.org/2000/svg" version="1.1">
 <metadata>
  <rdf:RDF xmlns:dc="http://purl.org/dc/elements/1.1/" xmlns:cc="http://creativecommons.org/ns#" xmlns:rdf="http://www.w3.org/1999/02/22-rdf-syntax-ns#">
   <cc:Work>
    <dc:type rdf:resource="http://purl.org/dc/dcmitype/StillImage"/>
    <dc:format>image/svg+xml</dc:format>
    <dc:creator>
     <cc:Agent>
      <dc:title>Matplotlib v3.10.8, https://matplotlib.org/</dc:title>
     </cc:Agent>
    </dc:creator>
   </cc:Work>
  </rdf:RDF>
 </metadata>
 <defs>
  <style type="text/css">*{stroke-linejoin: round; stroke-linecap: butt}</style>
 </defs>
 <g id="figure_1">
  <g id="patch_1">
   <path d="M 0 243.034375
L 496.623437 243.034375
L 496.623437 0
L 0 0
z
" style="fill: #ffffff"/>
  </g>
  <g id="axes_1">
   <g id="patch_2">
    <path d="M 58.523438 205.478125
L 489.423437 205.478125
L 489.423437 22.318125
L 58.523438 22.318125
z
" style="fill: #ffffff"/>
   </g>
   <g id="PathCollection_1">
    <defs>
     <path id="m75ac537d4f" d="M 0 1.581139
C 0.419323 1.581139 0.821528 1.41454 1.118034 1.118034
C 1.41454 0.821528 1.581139 0.419323 1.581139 0
C 1.581139 -0.419323 1.41454 -0.821528 1.118034 -1.118034
C 0.821528 -1.41454 0.419323 -1.581139 0 -1.581139
C -0.419323 -1.581139 -0.821528 -1.41454 -1.118034 -1.118034
C -1.41454 -0.821528 -1.581139 -0.419323 -1.581139 0
C -1.581139 0.419323 -1.41454 0.821528 -1.118034 1.118034
C -0.821528 1.41454 -0.419323 1.581139 0 1.581139
z
" style="stroke: #2d7181"/>
    </defs>
    <g clip-path="url(#p5bad05ee0e)">
     <use xlink:href="#m75ac537d4f" x="78.109801" y="113.898125" style="fill: #2d7181; stroke: #2d7181"/>
     <use xlink:href="#m75ac537d4f" x="80.298222" y="113.898125" style="fill: #2d7181; stroke: #2d7181"/>
     <use xlink:href="#m75ac537d4f" x="82.486642" y="113.898125" style="fill: #2d7181; stroke: #2d7181"/>
     <use xlink:href="#m75ac537d4f" x="84.675063" y="113.898125" style="fill: #2d7181; stroke: #2d7181"/>
     <use xlink:href="#m75ac537d4f" x="86.863483" y="113.898125" style="fill: #2d7181; stroke: #2d7181"/>
     <use xlink:href="#m75ac537d4f" x="89.051904" y="113.898125" style="fill: #2d7181; stroke: #2d7181"/>
     <use xlink:href="#m75ac537d4f" x="91.240324" y="113.898125" style="fill: #2d7181; stroke: #2d7181"/>
     <use xlink:href="#m75ac537d4f" x="93.428745" y="113.898125" style="fill: #2d7181; stroke: #2d7181"/>
     <use xlink:href="#m75ac537d4f" x="95.617165" y="113.898125" style="fill: #2d7181; stroke: #2d7181"/>
     <use xlink:href="#m75ac537d4f" x="97.805586" y="113.898125" style="fill: #2d7181; stroke: #2d7181"/>
     <use xlink:href="#m75ac537d4f" x="99.994006" y="113.898125" style="fill: #2d7181; stroke: #2d7181"/>
     <use xlink:href="#m75ac537d4f" x="102.182427" y="113.898125" style="fill: #2d7181; stroke: #2d7181"/>
     <use xlink:href="#m75ac537d4f" x="104.370847" y="113.898125" style="fill: #2d7181; stroke: #2d7181"/>
     <use xlink:href="#m75ac537d4f" x="106.559268" y="113.898125" style="fill: #2d7181; stroke: #2d7181"/>
     <use xlink:href="#m75ac537d4f" x="108.747688" y="113.898125" style="fill: #2d7181; stroke: #2d7181"/>
     <use xlink:href="#m75ac537d4f" x="110.936109" y="113.898125" style="fill: #2d7181; stroke: #2d7181"/>
     <use xlink:href="#m75ac537d4f" x="113.124529" y="113.898125" style="fill: #2d7181; stroke: #2d7181"/>
     <use xlink:href="#m75ac537d4f" x="115.31295" y="113.898125" style="fill: #2d7181; stroke: #2d7181"/>
     <use xlink:href="#m75ac537d4f" x="117.50137" y="113.898125" style="fill: #2d7181; stroke: #2d7181"/>
     <use xlink:href="#m75ac537d4f" x="119.689791" y="113.898125" style="fill: #2d7181; stroke: #2d7181"/>
     <use xlink:href="#m75ac537d4f" x="121.878211" y="113.898125" style="fill: #2d7181; stroke: #2d7181"/>
     <use xlink:href="#m75ac537d4f" x="124.066632" y="113.898125" style="fill: #2d7181; stroke: #2d7181"/>
     <use xlink:href="#m75ac537d4f" x="126.255053" y="113.898125" style="fill: #2d7181; stroke: #2d7181"/>
     <use xlink:href="#m75ac537d4f" x="128.443473" y="113.898125" style="fill: #2d7181; stroke: #2d7181"/>
     <use xlink:href="#m75ac537d4f" x="130.631894" y="113.898125" style="fill: #2d7181; stroke: #2d7181"/>
     <use xlink:href="#m75ac537d4f" x="132.820314" y="113.898125" style="fill: #2d7181; stroke: #2d7181"/>
     <use xlink:href="#m75ac537d4f" x="135.008735" y="113.898125" style="fill: #2d7181; stroke: #2d7181"/>
     <use xlink:href="#m75ac537d4f" x="137.197155" y="113.898125" style="fill: #2d7181; stroke: #2d7181"/>
     <use xlink:href="#m75ac537d4f" x="139.385576" y="113.898125" style="fill: #2d7181; stroke: #2d7181"/>
     <use xlink:href="#m75ac537d4f" x="141.573996" y="113.898125" style="fill: #2d7181; stroke: #2d7181"/>
     <use xlink:href="#m75ac537d4f" x="143.762417" y="113.898125" style="fill: #2d7181; stroke: #2d7181"/>
     <use xlink:href="#m75ac537d4f" x="145.950837" y="113.898125" style="fill: #2d7181; stroke: #2d7181"/>
     <use xlink:href="#m75ac537d4f" x="148.139258" y="113.898125" style="fill: #2d7181; stroke: #2d7181"/>
     <use xlink:href="#m75ac537d4f" x="150.327678" y="113.898125" style="fill: #2d7181; stroke: #2d7181"/>
     <use xlink:href="#m75ac537d4f" x="152.516099" y="113.898125" style="fill: #2d7181; stroke: #2d7181"/>
     <use xlink:href="#m75ac537d4f" x="154.704519" y="113.898125" style="fill: #2d7181; stroke: #2d7181"/>
     <use xlink:href="#m75ac537d4f" x="156.89294" y="113.898125" style="fill: #2d7181; stroke: #2d7181"/>
     <use xlink:href="#m75ac537d4f" x="159.08136" y="113.898125" style="fill: #2d7181; stroke: #2d7181"/>
     <use xlink:href="#m75ac537d4f" x="161.269781" y="113.898125" style="fill: #2d7181; stroke: #2d7181"/>
     <use xlink:href="#m75ac537d4f" x="163.458201" y="113.898125" style="fill: #2d7181; stroke: #2d7181"/>
     <use xlink:href="#m75ac537d4f" x="165.646622" y="113.898125" style="fill: #2d7181; stroke: #2d7181"/>
     <use xlink:href="#m75ac537d4f" x="167.835042" y="113.898125" style="fill: #2d7181; stroke: #2d7181"/>
     <use xlink:href="#m75ac537d4f" x="170.023463" y="113.898125" style="fill: #2d7181; stroke: #2d7181"/>
     <use xlink:href="#m75ac537d4f" x="172.211883" y="113.898125" style="fill: #2d7181; stroke: #2d7181"/>
     <use xlink:href="#m75ac537d4f" x="174.400304" y="113.898125" style="fill: #2d7181; stroke: #2d7181"/>
     <use xlink:href="#m75ac537d4f" x="176.588724" y="113.898125" style="fill: #2d7181; stroke: #2d7181"/>
     <use xlink:href="#m75ac537d4f" x="178.777145" y="113.898125" style="fill: #2d7181; stroke: #2d7181"/>
     <use xlink:href="#m75ac537d4f" x="180.965565" y="113.898125" style="fill: #2d7181; stroke: #2d7181"/>
     <use xlink:href="#m75ac537d4f" x="183.153986" y="113.898125" style="fill: #2d7181; stroke: #2d7181"/>
     <use xlink:href="#m75ac537d4f" x="185.342407" y="113.898125" style="fill: #2d7181; stroke: #2d7181"/>
     <use xlink:href="#m75ac537d4f" x="187.530827" y="113.898125" style="fill: #2d7181; stroke: #2d7181"/>
     <use xlink:href="#m75ac537d4f" x="189.719248" y="113.898125" style="fill: #2d7181; stroke: #2d7181"/>
     <use xlink:href="#m75ac537d4f" x="191.907668" y="113.898125" style="fill: #2d7181; stroke: #2d7181"/>
     <use xlink:href="#m75ac537d4f" x="194.096089" y="113.898125" style="fill: #2d7181; stroke: #2d7181"/>
     <use xlink:href="#m75ac537d4f" x="196.284509" y="113.898125" style="fill: #2d7181; stroke: #2d7181"/>
     <use xlink:href="#m75ac537d4f" x="198.47293" y="113.898125" style="fill: #2d7181; stroke: #2d7181"/>
     <use xlink:href="#m75ac537d4f" x="200.66135" y="113.898125" style="fill: #2d7181; stroke: #2d7181"/>
     <use xlink:href="#m75ac537d4f" x="202.849771" y="113.898125" style="fill: #2d7181; stroke: #2d7181"/>
     <use xlink:href="#m75ac537d4f" x="205.038191" y="113.898125" style="fill: #2d7181; stroke: #2d7181"/>
     <use xlink:href="#m75ac537d4f" x="207.226612" y="113.898125" style="fill: #2d7181; stroke: #2d7181"/>
     <use xlink:href="#m75ac537d4f" x="209.415032" y="113.898125" style="fill: #2d7181; stroke: #2d7181"/>
     <use xlink:href="#m75ac537d4f" x="211.603453" y="113.898125" style="fill: #2d7181; stroke: #2d7181"/>
     <use xlink:href="#m75ac537d4f" x="213.791873" y="113.898125" style="fill: #2d7181; stroke: #2d7181"/>
     <use xlink:href="#m75ac537d4f" x="215.980294" y="113.898125" style="fill: #2d7181; stroke: #2d7181"/>
     <use xlink:href="#m75ac537d4f" x="218.168714" y="113.898125" style="fill: #2d7181; stroke: #2d7181"/>
     <use xlink:href="#m75ac537d4f" x="220.357135" y="113.898125" style="fill: #2d7181; stroke: #2d7181"/>
     <use xlink:href="#m75ac537d4f" x="222.545555" y="113.898125" style="fill: #2d7181; stroke: #2d7181"/>
     <use xlink:href="#m75ac537d4f" x="224.733976" y="113.898125" style="fill: #2d7181; stroke: #2d7181"/>
     <use xlink:href="#m75ac537d4f" x="226.922396" y="113.898125" style="fill: #2d7181; stroke: #2d7181"/>
     <use xlink:href="#m75ac537d4f" x="229.110817" y="113.898125" style="fill: #2d7181; stroke: #2d7181"/>
     <use xlink:href="#m75ac537d4f" x="231.299237" y="113.898125" style="fill: #2d7181; stroke: #2d7181"/>
     <use xlink:href="#m75ac537d4f" x="233.487658" y="113.898125" style="fill: #2d7181; stroke: #2d7181"/>
     <use xlink:href="#m75ac537d4f" x="235.676078" y="113.898125" style="fill: #2d7181; stroke: #2d7181"/>
     <use xlink:href="#m75ac537d4f" x="237.864499" y="113.898125" style="fill: #2d7181; stroke: #2d7181"/>
     <use xlink:href="#m75ac537d4f" x="240.052919" y="113.898125" style="fill: #2d7181; stroke: #2d7181"/>
     <use xlink:href="#m75ac537d4f" x="242.24134" y="113.898125" style="fill: #2d7181; stroke: #2d7181"/>
     <use xlink:href="#m75ac537d4f" x="244.429761" y="113.898125" style="fill: #2d7181; stroke: #2d7181"/>
     <use xlink:href="#m75ac537d4f" x="246.618181" y="113.898125" style="fill: #2d7181; stroke: #2d7181"/>
     <use xlink:href="#m75ac537d4f" x="248.806602" y="113.898125" style="fill: #2d7181; stroke: #2d7181"/>
     <use xlink:href="#m75ac537d4f" x="250.995022" y="113.898125" style="fill: #2d7181; stroke: #2d7181"/>
     <use xlink:href="#m75ac537d4f" x="253.183443" y="113.898125" style="fill: #2d7181; stroke: #2d7181"/>
     <use xlink:href="#m75ac537d4f" x="255.371863" y="113.898125" style="fill: #2d7181; stroke: #2d7181"/>
     <use xlink:href="#m75ac537d4f" x="257.560284" y="113.898125" style="fill: #2d7181; stroke: #2d7181"/>
     <use xlink:href="#m75ac537d4f" x="259.748704" y="113.898125" style="fill: #2d7181; stroke: #2d7181"/>
     <use xlink:href="#m75ac537d4f" x="261.937125" y="113.898125" style="fill: #2d7181; stroke: #2d7181"/>
     <use xlink:href="#m75ac537d4f" x="264.125545" y="113.898125" style="fill: #2d7181; stroke: #2d7181"/>
     <use xlink:href="#m75ac537d4f" x="266.313966" y="113.898125" style="fill: #2d7181; stroke: #2d7181"/>
     <use xlink:href="#m75ac537d4f" x="268.502386" y="113.898125" style="fill: #2d7181; stroke: #2d7181"/>
     <use xlink:href="#m75ac537d4f" x="270.690807" y="113.898125" style="fill: #2d7181; stroke: #2d7181"/>
     <use xlink:href="#m75ac537d4f" x="272.879227" y="113.898125" style="fill: #2d7181; stroke: #2d7181"/>
     <use xlink:href="#m75ac537d4f" x="275.067648" y="113.898125" style="fill: #2d7181; stroke: #2d7181"/>
     <use xlink:href="#m75ac537d4f" x="277.256068" y="113.898125" style="fill: #2d7181; stroke: #2d7181"/>
     <use xlink:href="#m75ac537d4f" x="279.444489" y="113.898125" style="fill: #2d7181; stroke: #2d7181"/>
     <use xlink:href="#m75ac537d4f" x="281.632909" y="113.898125" style="fill: #2d7181; stroke: #2d7181"/>
     <use xlink:href="#m75ac537d4f" x="283.82133" y="113.898125" style="fill: #2d7181; stroke: #2d7181"/>
     <use xlink:href="#m75ac537d4f" x="286.00975" y="113.898125" style="fill: #2d7181; stroke: #2d7181"/>
     <use xlink:href="#m75ac537d4f" x="288.198171" y="113.898125" style="fill: #2d7181; stroke: #2d7181"/>
     <use xlink:href="#m75ac537d4f" x="290.386591" y="113.898125" style="fill: #2d7181; stroke: #2d7181"/>
     <use xlink:href="#m75ac537d4f" x="292.575012" y="113.898125" style="fill: #2d7181; stroke: #2d7181"/>
     <use xlink:href="#m75ac537d4f" x="294.763432" y="113.898125" style="fill: #2d7181; stroke: #2d7181"/>
     <use xlink:href="#m75ac537d4f" x="296.951853" y="113.898125" style="fill: #2d7181; stroke: #2d7181"/>
     <use xlink:href="#m75ac537d4f" x="299.140273" y="113.898125" style="fill: #2d7181; stroke: #2d7181"/>
     <use xlink:href="#m75ac537d4f" x="301.328694" y="113.898125" style="fill: #2d7181; stroke: #2d7181"/>
     <use xlink:href="#m75ac537d4f" x="303.517114" y="113.898125" style="fill: #2d7181; stroke: #2d7181"/>
     <use xlink:href="#m75ac537d4f" x="305.705535" y="113.898125" style="fill: #2d7181; stroke: #2d7181"/>
     <use xlink:href="#m75ac537d4f" x="307.893956" y="113.898125" style="fill: #2d7181; stroke: #2d7181"/>
     <use xlink:href="#m75ac537d4f" x="310.082376" y="113.898125" style="fill: #2d7181; stroke: #2d7181"/>
     <use xlink:href="#m75ac537d4f" x="312.270797" y="113.898125" style="fill: #2d7181; stroke: #2d7181"/>
     <use xlink:href="#m75ac537d4f" x="314.459217" y="113.898125" style="fill: #2d7181; stroke: #2d7181"/>
     <use xlink:href="#m75ac537d4f" x="316.647638" y="113.898125" style="fill: #2d7181; stroke: #2d7181"/>
     <use xlink:href="#m75ac537d4f" x="318.836058" y="113.898125" style="fill: #2d7181; stroke: #2d7181"/>
     <use xlink:href="#m75ac537d4f" x="321.024479" y="113.898125" style="fill: #2d7181; stroke: #2d7181"/>
     <use xlink:href="#m75ac537d4f" x="323.212899" y="113.898125" style="fill: #2d7181; stroke: #2d7181"/>
     <use xlink:href="#m75ac537d4f" x="325.40132" y="113.898125" style="fill: #2d7181; stroke: #2d7181"/>
     <use xlink:href="#m75ac537d4f" x="327.58974" y="113.898125" style="fill: #2d7181; stroke: #2d7181"/>
     <use xlink:href="#m75ac537d4f" x="329.778161" y="113.898125" style="fill: #2d7181; stroke: #2d7181"/>
     <use xlink:href="#m75ac537d4f" x="331.966581" y="113.898125" style="fill: #2d7181; stroke: #2d7181"/>
     <use xlink:href="#m75ac537d4f" x="334.155002" y="113.898125" style="fill: #2d7181; stroke: #2d7181"/>
     <use xlink:href="#m75ac537d4f" x="336.343422" y="113.898125" style="fill: #2d7181; stroke: #2d7181"/>
     <use xlink:href="#m75ac537d4f" x="338.531843" y="113.898125" style="fill: #2d7181; stroke: #2d7181"/>
     <use xlink:href="#m75ac537d4f" x="340.720263" y="113.898125" style="fill: #2d7181; stroke: #2d7181"/>
     <use xlink:href="#m75ac537d4f" x="342.908684" y="113.898125" style="fill: #2d7181; stroke: #2d7181"/>
     <use xlink:href="#m75ac537d4f" x="345.097104" y="113.898125" style="fill: #2d7181; stroke: #2d7181"/>
     <use xlink:href="#m75ac537d4f" x="347.285525" y="113.898125" style="fill: #2d7181; stroke: #2d7181"/>
     <use xlink:href="#m75ac537d4f" x="349.473945" y="113.898125" style="fill: #2d7181; stroke: #2d7181"/>
     <use xlink:href="#m75ac537d4f" x="351.662366" y="113.898125" style="fill: #2d7181; stroke: #2d7181"/>
     <use xlink:href="#m75ac537d4f" x="353.850786" y="113.898125" style="fill: #2d7181; stroke: #2d7181"/>
     <use xlink:href="#m75ac537d4f" x="356.039207" y="113.898125" style="fill: #2d7181; stroke: #2d7181"/>
     <use xlink:href="#m75ac537d4f" x="358.227627" y="113.898125" style="fill: #2d7181; stroke: #2d7181"/>
     <use xlink:href="#m75ac537d4f" x="360.416048" y="113.898125" style="fill: #2d7181; stroke: #2d7181"/>
     <use xlink:href="#m75ac537d4f" x="362.604468" y="113.898125" style="fill: #2d7181; stroke: #2d7181"/>
     <use xlink:href="#m75ac537d4f" x="364.792889" y="113.898125" style="fill: #2d7181; stroke: #2d7181"/>
     <use xlink:href="#m75ac537d4f" x="366.98131" y="113.898125" style="fill: #2d7181; stroke: #2d7181"/>
     <use xlink:href="#m75ac537d4f" x="369.16973" y="113.898125" style="fill: #2d7181; stroke: #2d7181"/>
     <use xlink:href="#m75ac537d4f" x="371.358151" y="113.898125" style="fill: #2d7181; stroke: #2d7181"/>
     <use xlink:href="#m75ac537d4f" x="373.546571" y="113.898125" style="fill: #2d7181; stroke: #2d7181"/>
     <use xlink:href="#m75ac537d4f" x="375.734992" y="113.898125" style="fill: #2d7181; stroke: #2d7181"/>
     <use xlink:href="#m75ac537d4f" x="377.923412" y="113.898125" style="fill: #2d7181; stroke: #2d7181"/>
     <use xlink:href="#m75ac537d4f" x="380.111833" y="113.898125" style="fill: #2d7181; stroke: #2d7181"/>
     <use xlink:href="#m75ac537d4f" x="382.300253" y="113.898125" style="fill: #2d7181; stroke: #2d7181"/>
     <use xlink:href="#m75ac537d4f" x="384.488674" y="113.898125" style="fill: #2d7181; stroke: #2d7181"/>
     <use xlink:href="#m75ac537d4f" x="386.677094" y="113.898125" style="fill: #2d7181; stroke: #2d7181"/>
     <use xlink:href="#m75ac537d4f" x="388.865515" y="113.898125" style="fill: #2d7181; stroke: #2d7181"/>
     <use xlink:href="#m75ac537d4f" x="391.053935" y="113.898125" style="fill: #2d7181; stroke: #2d7181"/>
     <use xlink:href="#m75ac537d4f" x="393.242356" y="113.898125" style="fill: #2d7181; stroke: #2d7181"/>
     <use xlink:href="#m75ac537d4f" x="395.430776" y="113.898125" style="fill: #2d7181; stroke: #2d7181"/>
     <use xlink:href="#m75ac537d4f" x="397.619197" y="113.898125" style="fill: #2d7181; stroke: #2d7181"/>
     <use xlink:href="#m75ac537d4f" x="399.807617" y="113.898125" style="fill: #2d7181; stroke: #2d7181"/>
     <use xlink:href="#m75ac537d4f" x="401.996038" y="113.898125" style="fill: #2d7181; stroke: #2d7181"/>
     <use xlink:href="#m75ac537d4f" x="404.184458" y="113.898125" style="fill: #2d7181; stroke: #2d7181"/>
     <use xlink:href="#m75ac537d4f" x="406.372879" y="113.898125" style="fill: #2d7181; stroke: #2d7181"/>
     <use xlink:href="#m75ac537d4f" x="408.561299" y="113.898125" style="fill: #2d7181; stroke: #2d7181"/>
     <use xlink:href="#m75ac537d4f" x="410.74972" y="113.898125" style="fill: #2d7181; stroke: #2d7181"/>
     <use xlink:href="#m75ac537d4f" x="412.93814" y="113.898125" style="fill: #2d7181; stroke: #2d7181"/>
     <use xlink:href="#m75ac537d4f" x="415.126561" y="113.898125" style="fill: #2d7181; stroke: #2d7181"/>
     <use xlink:href="#m75ac537d4f" x="417.314981" y="113.898125" style="fill: #2d7181; stroke: #2d7181"/>
     <use xlink:href="#m75ac537d4f" x="419.503402" y="113.898125" style="fill: #2d7181; stroke: #2d7181"/>
     <use xlink:href="#m75ac537d4f" x="421.691822" y="113.898125" style="fill: #2d7181; stroke: #2d7181"/>
     <use xlink:href="#m75ac537d4f" x="423.880243" y="113.898125" style="fill: #2d7181; stroke: #2d7181"/>
     <use xlink:href="#m75ac537d4f" x="426.068664" y="113.898125" style="fill: #2d7181; stroke: #2d7181"/>
     <use xlink:href="#m75ac537d4f" x="428.257084" y="113.898125" style="fill: #2d7181; stroke: #2d7181"/>
     <use xlink:href="#m75ac537d4f" x="430.445505" y="113.898125" style="fill: #2d7181; stroke: #2d7181"/>
     <use xlink:href="#m75ac537d4f" x="432.633925" y="113.898125" style="fill: #2d7181; stroke: #2d7181"/>
     <use xlink:href="#m75ac537d4f" x="434.822346" y="113.898125" style="fill: #2d7181; stroke: #2d7181"/>
     <use xlink:href="#m75ac537d4f" x="437.010766" y="113.898125" style="fill: #2d7181; stroke: #2d7181"/>
     <use xlink:href="#m75ac537d4f" x="439.199187" y="113.898125" style="fill: #2d7181; stroke: #2d7181"/>
     <use xlink:href="#m75ac537d4f" x="441.387607" y="113.898125" style="fill: #2d7181; stroke: #2d7181"/>
     <use xlink:href="#m75ac537d4f" x="443.576028" y="113.898125" style="fill: #2d7181; stroke: #2d7181"/>
     <use xlink:href="#m75ac537d4f" x="445.764448" y="113.898125" style="fill: #2d7181; stroke: #2d7181"/>
     <use xlink:href="#m75ac537d4f" x="447.952869" y="113.898125" style="fill: #2d7181; stroke: #2d7181"/>
     <use xlink:href="#m75ac537d4f" x="450.141289" y="113.898125" style="fill: #2d7181; stroke: #2d7181"/>
     <use xlink:href="#m75ac537d4f" x="452.32971" y="113.898125" style="fill: #2d7181; stroke: #2d7181"/>
     <use xlink:href="#m75ac537d4f" x="454.51813" y="113.898125" style="fill: #2d7181; stroke: #2d7181"/>
     <use xlink:href="#m75ac537d4f" x="456.706551" y="113.898125" style="fill: #2d7181; stroke: #2d7181"/>
     <use xlink:href="#m75ac537d4f" x="458.894971" y="113.898125" style="fill: #2d7181; stroke: #2d7181"/>
     <use xlink:href="#m75ac537d4f" x="461.083392" y="113.898125" style="fill: #2d7181; stroke: #2d7181"/>
     <use xlink:href="#m75ac537d4f" x="463.271812" y="113.898125" style="fill: #2d7181; stroke: #2d7181"/>
     <use xlink:href="#m75ac537d4f" x="465.460233" y="113.898125" style="fill: #2d7181; stroke: #2d7181"/>
     <use xlink:href="#m75ac537d4f" x="467.648653" y="113.898125" style="fill: #2d7181; stroke: #2d7181"/>
     <use xlink:href="#m75ac537d4f" x="469.837074" y="113.898125" style="fill: #2d7181; stroke: #2d7181"/>
    </g>
   </g>
   <g id="matplotlib.axis_1">
    <g id="xtick_1">
     <g id="line2d_1">
      <defs>
       <path id="m0bee6aa1b7" d="M 0 0
L 0 3.5
" style="stroke: #000000; stroke-width: 0.8"/>
      </defs>
      <g>
       <use xlink:href="#m0bee6aa1b7" x="78.109801" y="205.478125" style="stroke: #000000; stroke-width: 0.8"/>
      </g>
     </g>
     <g id="text_1">
      <!-- 0 -->
      <g transform="translate(74.928551 220.076563) scale(0.1 -0.1)">
       <defs>
        <path id="DejaVuSans-30" d="M 2034 4250
Q 1547 4250 1301 3770
Q 1056 3291 1056 2328
Q 1056 1369 1301 889
Q 1547 409 2034 409
Q 2525 409 2770 889
Q 3016 1369 3016 2328
Q 3016 3291 2770 3770
Q 2525 4250 2034 4250
z
M 2034 4750
Q 2819 4750 3233 4129
Q 3647 3509 3647 2328
Q 3647 1150 3233 529
Q 2819 -91 2034 -91
Q 1250 -91 836 529
Q 422 1150 422 2328
Q 422 3509 836 4129
Q 1250 4750 2034 4750
z
" transform="scale(0.015625)"/>
       </defs>
       <use xlink:href="#DejaVuSans-30"/>
      </g>
     </g>
    </g>
    <g id="xtick_2">
     <g id="line2d_2">
      <g>
       <use xlink:href="#m0bee6aa1b7" x="132.820314" y="205.478125" style="stroke: #000000; stroke-width: 0.8"/>
      </g>
     </g>
     <g id="text_2">
      <!-- 25 -->
      <g transform="translate(126.457814 220.076563) scale(0.1 -0.1)">
       <defs>
        <path id="DejaVuSans-32" d="M 1228 531
L 3431 531
L 3431 0
L 469 0
L 469 531
Q 828 903 1448 1529
Q 2069 2156 2228 2338
Q 2531 2678 2651 2914
Q 2772 3150 2772 3378
Q 2772 3750 2511 3984
Q 2250 4219 1831 4219
Q 1534 4219 1204 4116
Q 875 4013 500 3803
L 500 4441
Q 881 4594 1212 4672
Q 1544 4750 1819 4750
Q 2544 4750 2975 4387
Q 3406 4025 3406 3419
Q 3406 3131 3298 2873
Q 3191 2616 2906 2266
Q 2828 2175 2409 1742
Q 1991 1309 1228 531
z
" transform="scale(0.015625)"/>
        <path id="DejaVuSans-35" d="M 691 4666
L 3169 4666
L 3169 4134
L 1269 4134
L 1269 2991
Q 1406 3038 1543 3061
Q 1681 3084 1819 3084
Q 2600 3084 3056 2656
Q 3513 2228 3513 1497
Q 3513 744 3044 326
Q 2575 -91 1722 -91
Q 1428 -91 1123 -41
Q 819 9 494 109
L 494 744
Q 775 591 1075 516
Q 1375 441 1709 441
Q 2250 441 2565 725
Q 2881 1009 2881 1497
Q 2881 1984 2565 2268
Q 2250 2553 1709 2553
Q 1456 2553 1204 2497
Q 953 2441 691 2322
L 691 4666
z
" transform="scale(0.015625)"/>
       </defs>
       <use xlink:href="#DejaVuSans-32"/>
       <use xlink:href="#DejaVuSans-35" transform="translate(63.623047 0)"/>
      </g>
     </g>
    </g>
    <g id="xtick_3">
     <g id="line2d_3">
      <g>
       <use xlink:href="#m0bee6aa1b7" x="187.530827" y="205.478125" style="stroke: #000000; stroke-width: 0.8"/>
      </g>
     </g>
     <g id="text_3">
      <!-- 50 -->
      <g transform="translate(181.168327 220.076563) scale(0.1 -0.1)">
       <use xlink:href="#DejaVuSans-35"/>
       <use xlink:href="#DejaVuSans-30" transform="translate(63.623047 0)"/>
      </g>
     </g>
    </g>
    <g id="xtick_4">
     <g id="line2d_4">
      <g>
       <use xlink:href="#m0bee6aa1b7" x="242.24134" y="205.478125" style="stroke: #000000; stroke-width: 0.8"/>
      </g>
     </g>
     <g id="text_4">
      <!-- 75 -->
      <g transform="translate(235.87884 220.076563) scale(0.1 -0.1)">
       <defs>
        <path id="DejaVuSans-37" d="M 525 4666
L 3525 4666
L 3525 4397
L 1831 0
L 1172 0
L 2766 4134
L 525 4134
L 525 4666
z
" transform="scale(0.015625)"/>
       </defs>
       <use xlink:href="#DejaVuSans-37"/>
       <use xlink:href="#DejaVuSans-35" transform="translate(63.623047 0)"/>
      </g>
     </g>
    </g>
    <g id="xtick_5">
     <g id="line2d_5">
      <g>
       <use xlink:href="#m0bee6aa1b7" x="296.951853" y="205.478125" style="stroke: #000000; stroke-width: 0.8"/>
      </g>
     </g>
     <g id="text_5">
      <!-- 100 -->
      <g transform="translate(287.408103 220.076563) scale(0.1 -0.1)">
       <defs>
        <path id="DejaVuSans-31" d="M 794 531
L 1825 531
L 1825 4091
L 703 3866
L 703 4441
L 1819 4666
L 2450 4666
L 2450 531
L 3481 531
L 3481 0
L 794 0
L 794 531
z
" transform="scale(0.015625)"/>
       </defs>
       <use xlink:href="#DejaVuSans-31"/>
       <use xlink:href="#DejaVuSans-30" transform="translate(63.623047 0)"/>
       <use xlink:href="#DejaVuSans-30" transform="translate(127.246094 0)"/>
      </g>
     </g>
    </g>
    <g id="xtick_6">
     <g id="line2d_6">
      <g>
       <use xlink:href="#m0bee6aa1b7" x="351.662366" y="205.478125" style="stroke: #000000; stroke-width: 0.8"/>
      </g>
     </g>
     <g id="text_6">
      <!-- 125 -->
      <g transform="translate(342.118616 220.076563) scale(0.1 -0.1)">
       <use xlink:href="#DejaVuSans-31"/>
       <use xlink:href="#DejaVuSans-32" transform="translate(63.623047 0)"/>
       <use xlink:href="#DejaVuSans-35" transform="translate(127.246094 0)"/>
      </g>
     </g>
    </g>
    <g id="xtick_7">
     <g id="line2d_7">
      <g>
       <use xlink:href="#m0bee6aa1b7" x="406.372879" y="205.478125" style="stroke: #000000; stroke-width: 0.8"/>
      </g>
     </g>
     <g id="text_7">
      <!-- 150 -->
      <g transform="translate(396.829129 220.076563) scale(0.1 -0.1)">
       <use xlink:href="#DejaVuSans-31"/>
       <use xlink:href="#DejaVuSans-35" transform="translate(63.623047 0)"/>
       <use xlink:href="#DejaVuSans-30" transform="translate(127.246094 0)"/>
      </g>
     </g>
    </g>
    <g id="xtick_8">
     <g id="line2d_8">
      <g>
       <use xlink:href="#m0bee6aa1b7" x="461.083392" y="205.478125" style="stroke: #000000; stroke-width: 0.8"/>
      </g>
     </g>
     <g id="text_8">
      <!-- 175 -->
      <g transform="translate(451.539642 220.076563) scale(0.1 -0.1)">
       <use xlink:href="#DejaVuSans-31"/>
       <use xlink:href="#DejaVuSans-37" transform="translate(63.623047 0)"/>
       <use xlink:href="#DejaVuSans-35" transform="translate(127.246094 0)"/>
      </g>
     </g>
    </g>
    <g id="text_9">
     <!-- Frozen pair ID -->
     <g transform="translate(239.402344 233.754688) scale(0.1 -0.1)">
      <defs>
       <path id="DejaVuSans-46" d="M 628 4666
L 3309 4666
L 3309 4134
L 1259 4134
L 1259 2759
L 3109 2759
L 3109 2228
L 1259 2228
L 1259 0
L 628 0
L 628 4666
z
" transform="scale(0.015625)"/>
       <path id="DejaVuSans-72" d="M 2631 2963
Q 2534 3019 2420 3045
Q 2306 3072 2169 3072
Q 1681 3072 1420 2755
Q 1159 2438 1159 1844
L 1159 0
L 581 0
L 581 3500
L 1159 3500
L 1159 2956
Q 1341 3275 1631 3429
Q 1922 3584 2338 3584
Q 2397 3584 2469 3576
Q 2541 3569 2628 3553
L 2631 2963
z
" transform="scale(0.015625)"/>
       <path id="DejaVuSans-6f" d="M 1959 3097
Q 1497 3097 1228 2736
Q 959 2375 959 1747
Q 959 1119 1226 758
Q 1494 397 1959 397
Q 2419 397 2687 759
Q 2956 1122 2956 1747
Q 2956 2369 2687 2733
Q 2419 3097 1959 3097
z
M 1959 3584
Q 2709 3584 3137 3096
Q 3566 2609 3566 1747
Q 3566 888 3137 398
Q 2709 -91 1959 -91
Q 1206 -91 779 398
Q 353 888 353 1747
Q 353 2609 779 3096
Q 1206 3584 1959 3584
z
" transform="scale(0.015625)"/>
       <path id="DejaVuSans-7a" d="M 353 3500
L 3084 3500
L 3084 2975
L 922 459
L 3084 459
L 3084 0
L 275 0
L 275 525
L 2438 3041
L 353 3041
L 353 3500
z
" transform="scale(0.015625)"/>
       <path id="DejaVuSans-65" d="M 3597 1894
L 3597 1613
L 953 1613
Q 991 1019 1311 708
Q 1631 397 2203 397
Q 2534 397 2845 478
Q 3156 559 3463 722
L 3463 178
Q 3153 47 2828 -22
Q 2503 -91 2169 -91
Q 1331 -91 842 396
Q 353 884 353 1716
Q 353 2575 817 3079
Q 1281 3584 2069 3584
Q 2775 3584 3186 3129
Q 3597 2675 3597 1894
z
M 3022 2063
Q 3016 2534 2758 2815
Q 2500 3097 2075 3097
Q 1594 3097 1305 2825
Q 1016 2553 972 2059
L 3022 2063
z
" transform="scale(0.015625)"/>
       <path id="DejaVuSans-6e" d="M 3513 2113
L 3513 0
L 2938 0
L 2938 2094
Q 2938 2591 2744 2837
Q 2550 3084 2163 3084
Q 1697 3084 1428 2787
Q 1159 2491 1159 1978
L 1159 0
L 581 0
L 581 3500
L 1159 3500
L 1159 2956
Q 1366 3272 1645 3428
Q 1925 3584 2291 3584
Q 2894 3584 3203 3211
Q 3513 2838 3513 2113
z
" transform="scale(0.015625)"/>
       <path id="DejaVuSans-20" transform="scale(0.015625)"/>
       <path id="DejaVuSans-70" d="M 1159 525
L 1159 -1331
L 581 -1331
L 581 3500
L 1159 3500
L 1159 2969
Q 1341 3281 1617 3432
Q 1894 3584 2278 3584
Q 2916 3584 3314 3078
Q 3713 2572 3713 1747
Q 3713 922 3314 415
Q 2916 -91 2278 -91
Q 1894 -91 1617 61
Q 1341 213 1159 525
z
M 3116 1747
Q 3116 2381 2855 2742
Q 2594 3103 2138 3103
Q 1681 3103 1420 2742
Q 1159 2381 1159 1747
Q 1159 1113 1420 752
Q 1681 391 2138 391
Q 2594 391 2855 752
Q 3116 1113 3116 1747
z
" transform="scale(0.015625)"/>
       <path id="DejaVuSans-61" d="M 2194 1759
Q 1497 1759 1228 1600
Q 959 1441 959 1056
Q 959 750 1161 570
Q 1363 391 1709 391
Q 2188 391 2477 730
Q 2766 1069 2766 1631
L 2766 1759
L 2194 1759
z
M 3341 1997
L 3341 0
L 2766 0
L 2766 531
Q 2569 213 2275 61
Q 1981 -91 1556 -91
Q 1019 -91 701 211
Q 384 513 384 1019
Q 384 1609 779 1909
Q 1175 2209 1959 2209
L 2766 2209
L 2766 2266
Q 2766 2663 2505 2880
Q 2244 3097 1772 3097
Q 1472 3097 1187 3025
Q 903 2953 641 2809
L 641 3341
Q 956 3463 1253 3523
Q 1550 3584 1831 3584
Q 2591 3584 2966 3190
Q 3341 2797 3341 1997
z
" transform="scale(0.015625)"/>
       <path id="DejaVuSans-69" d="M 603 3500
L 1178 3500
L 1178 0
L 603 0
L 603 3500
z
M 603 4863
L 1178 4863
L 1178 4134
L 603 4134
L 603 4863
z
" transform="scale(0.015625)"/>
       <path id="DejaVuSans-49" d="M 628 4666
L 1259 4666
L 1259 0
L 628 0
L 628 4666
z
" transform="scale(0.015625)"/>
       <path id="DejaVuSans-44" d="M 1259 4147
L 1259 519
L 2022 519
Q 2988 519 3436 956
Q 3884 1394 3884 2338
Q 3884 3275 3436 3711
Q 2988 4147 2022 4147
L 1259 4147
z
M 628 4666
L 1925 4666
Q 3281 4666 3915 4102
Q 4550 3538 4550 2338
Q 4550 1131 3912 565
Q 3275 0 1925 0
L 628 0
L 628 4666
z
" transform="scale(0.015625)"/>
      </defs>
      <use xlink:href="#DejaVuSans-46"/>
      <use xlink:href="#DejaVuSans-72" transform="translate(50.269531 0)"/>
      <use xlink:href="#DejaVuSans-6f" transform="translate(89.132812 0)"/>
      <use xlink:href="#DejaVuSans-7a" transform="translate(150.314453 0)"/>
      <use xlink:href="#DejaVuSans-65" transform="translate(202.804688 0)"/>
      <use xlink:href="#DejaVuSans-6e" transform="translate(264.328125 0)"/>
      <use xlink:href="#DejaVuSans-20" transform="translate(327.707031 0)"/>
      <use xlink:href="#DejaVuSans-70" transform="translate(359.494141 0)"/>
      <use xlink:href="#DejaVuSans-61" transform="translate(422.970703 0)"/>
      <use xlink:href="#DejaVuSans-69" transform="translate(484.25 0)"/>
      <use xlink:href="#DejaVuSans-72" transform="translate(512.033203 0)"/>
      <use xlink:href="#DejaVuSans-20" transform="translate(553.146484 0)"/>
      <use xlink:href="#DejaVuSans-49" transform="translate(584.933594 0)"/>
      <use xlink:href="#DejaVuSans-44" transform="translate(614.425781 0)"/>
     </g>
    </g>
   </g>
   <g id="matplotlib.axis_2">
    <g id="ytick_1">
     <g id="line2d_9">
      <defs>
       <path id="m10a8a227da" d="M 0 0
L -3.5 0
" style="stroke: #000000; stroke-width: 0.8"/>
      </defs>
      <g>
       <use xlink:href="#m10a8a227da" x="58.523438" y="180.501761" style="stroke: #000000; stroke-width: 0.8"/>
      </g>
     </g>
     <g id="text_10">
      <!-- âˆ’0.04 -->
      <g transform="translate(20.878125 184.30098) scale(0.1 -0.1)">
       <defs>
        <path id="DejaVuSans-2212" d="M 678 2272
L 4684 2272
L 4684 1741
L 678 1741
L 678 2272
z
" transform="scale(0.015625)"/>
        <path id="DejaVuSans-2e" d="M 684 794
L 1344 794
L 1344 0
L 684 0
L 684 794
z
" transform="scale(0.015625)"/>
        <path id="DejaVuSans-34" d="M 2419 4116
L 825 1625
L 2419 1625
L 2419 4116
z
M 2253 4666
L 3047 4666
L 3047 1625
L 3713 1625
L 3713 1100
L 3047 1100
L 3047 0
L 2419 0
L 2419 1100
L 313 1100
L 313 1709
L 2253 4666
z
" transform="scale(0.015625)"/>
       </defs>
       <use xlink:href="#DejaVuSans-2212"/>
       <use xlink:href="#DejaVuSans-30" transform="translate(83.789062 0)"/>
       <use xlink:href="#DejaVuSans-2e" transform="translate(147.412109 0)"/>
       <use xlink:href="#DejaVuSans-30" transform="translate(179.199219 0)"/>
       <use xlink:href="#DejaVuSans-34" transform="translate(242.822266 0)"/>
      </g>
     </g>
    </g>
    <g id="ytick_2">
     <g id="line2d_10">
      <g>
       <use xlink:href="#m10a8a227da" x="58.523438" y="147.199943" style="stroke: #000000; stroke-width: 0.8"/>
      </g>
     </g>
     <g id="text_11">
      <!-- âˆ’0.02 -->
      <g transform="translate(20.878125 150.999162) scale(0.1 -0.1)">
       <use xlink:href="#DejaVuSans-2212"/>
       <use xlink:href="#DejaVuSans-30" transform="translate(83.789062 0)"/>
       <use xlink:href="#DejaVuSans-2e" transform="translate(147.412109 0)"/>
       <use xlink:href="#DejaVuSans-30" transform="translate(179.199219 0)"/>
       <use xlink:href="#DejaVuSans-32" transform="translate(242.822266 0)"/>
      </g>
     </g>
    </g>
    <g id="ytick_3">
     <g id="line2d_11">
      <g>
       <use xlink:href="#m10a8a227da" x="58.523438" y="113.898125" style="stroke: #000000; stroke-width: 0.8"/>
      </g>
     </g>
     <g id="text_12">
      <!-- 0.00 -->
      <g transform="translate(29.257813 117.697344) scale(0.1 -0.1)">
       <use xlink:href="#DejaVuSans-30"/>
       <use xlink:href="#DejaVuSans-2e" transform="translate(63.623047 0)"/>
       <use xlink:href="#DejaVuSans-30" transform="translate(95.410156 0)"/>
       <use xlink:href="#DejaVuSans-30" transform="translate(159.033203 0)"/>
      </g>
     </g>
    </g>
    <g id="ytick_4">
     <g id="line2d_12">
      <g>
       <use xlink:href="#m10a8a227da" x="58.523438" y="80.596307" style="stroke: #000000; stroke-width: 0.8"/>
      </g>
     </g>
     <g id="text_13">
      <!-- 0.02 -->
      <g transform="translate(29.257813 84.395526) scale(0.1 -0.1)">
       <use xlink:href="#DejaVuSans-30"/>
       <use xlink:href="#DejaVuSans-2e" transform="translate(63.623047 0)"/>
       <use xlink:href="#DejaVuSans-30" transform="translate(95.410156 0)"/>
       <use xlink:href="#DejaVuSans-32" transform="translate(159.033203 0)"/>
      </g>
     </g>
    </g>
    <g id="ytick_5">
     <g id="line2d_13">
      <g>
       <use xlink:href="#m10a8a227da" x="58.523438" y="47.294489" style="stroke: #000000; stroke-width: 0.8"/>
      </g>
     </g>
     <g id="text_14">
      <!-- 0.04 -->
      <g transform="translate(29.257813 51.093707) scale(0.1 -0.1)">
       <use xlink:href="#DejaVuSans-30"/>
       <use xlink:href="#DejaVuSans-2e" transform="translate(63.623047 0)"/>
       <use xlink:href="#DejaVuSans-30" transform="translate(95.410156 0)"/>
       <use xlink:href="#DejaVuSans-34" transform="translate(159.033203 0)"/>
      </g>
     </g>
    </g>
    <g id="text_15">
     <!-- A* âˆ’ Dijkstra cost (m) -->
     <g transform="translate(14.798438 168.717656) rotate(-90) scale(0.1 -0.1)">
      <defs>
       <path id="DejaVuSans-41" d="M 2188 4044
L 1331 1722
L 3047 1722
L 2188 4044
z
M 1831 4666
L 2547 4666
L 4325 0
L 3669 0
L 3244 1197
L 1141 1197
L 716 0
L 50 0
L 1831 4666
z
" transform="scale(0.015625)"/>
       <path id="DejaVuSans-2a" d="M 3009 3897
L 1888 3291
L 3009 2681
L 2828 2375
L 1778 3009
L 1778 1831
L 1422 1831
L 1422 3009
L 372 2375
L 191 2681
L 1313 3291
L 191 3897
L 372 4206
L 1422 3572
L 1422 4750
L 1778 4750
L 1778 3572
L 2828 4206
L 3009 3897
z
" transform="scale(0.015625)"/>
       <path id="DejaVuSans-6a" d="M 603 3500
L 1178 3500
L 1178 -63
Q 1178 -731 923 -1031
Q 669 -1331 103 -1331
L -116 -1331
L -116 -844
L 38 -844
Q 366 -844 484 -692
Q 603 -541 603 -63
L 603 3500
z
M 603 4863
L 1178 4863
L 1178 4134
L 603 4134
L 603 4863
z
" transform="scale(0.015625)"/>
       <path id="DejaVuSans-6b" d="M 581 4863
L 1159 4863
L 1159 1991
L 2875 3500
L 3609 3500
L 1753 1863
L 3688 0
L 2938 0
L 1159 1709
L 1159 0
L 581 0
L 581 4863
z
" transform="scale(0.015625)"/>
       <path id="DejaVuSans-73" d="M 2834 3397
L 2834 2853
Q 2591 2978 2328 3040
Q 2066 3103 1784 3103
Q 1356 3103 1142 2972
Q 928 2841 928 2578
Q 928 2378 1081 2264
Q 1234 2150 1697 2047
L 1894 2003
Q 2506 1872 2764 1633
Q 3022 1394 3022 966
Q 3022 478 2636 193
Q 2250 -91 1575 -91
Q 1294 -91 989 -36
Q 684 19 347 128
L 347 722
Q 666 556 975 473
Q 1284 391 1588 391
Q 1994 391 2212 530
Q 2431 669 2431 922
Q 2431 1156 2273 1281
Q 2116 1406 1581 1522
L 1381 1569
Q 847 1681 609 1914
Q 372 2147 372 2553
Q 372 3047 722 3315
Q 1072 3584 1716 3584
Q 2034 3584 2315 3537
Q 2597 3491 2834 3397
z
" transform="scale(0.015625)"/>
       <path id="DejaVuSans-74" d="M 1172 4494
L 1172 3500
L 2356 3500
L 2356 3053
L 1172 3053
L 1172 1153
Q 1172 725 1289 603
Q 1406 481 1766 481
L 2356 481
L 2356 0
L 1766 0
Q 1100 0 847 248
Q 594 497 594 1153
L 594 3053
L 172 3053
L 172 3500
L 594 3500
L 594 4494
L 1172 4494
z
" transform="scale(0.015625)"/>
       <path id="DejaVuSans-63" d="M 3122 3366
L 3122 2828
Q 2878 2963 2633 3030
Q 2388 3097 2138 3097
Q 1578 3097 1268 2742
Q 959 2388 959 1747
Q 959 1106 1268 751
Q 1578 397 2138 397
Q 2388 397 2633 464
Q 2878 531 3122 666
L 3122 134
Q 2881 22 2623 -34
Q 2366 -91 2075 -91
Q 1284 -91 818 406
Q 353 903 353 1747
Q 353 2603 823 3093
Q 1294 3584 2113 3584
Q 2378 3584 2631 3529
Q 2884 3475 3122 3366
z
" transform="scale(0.015625)"/>
       <path id="DejaVuSans-28" d="M 1984 4856
Q 1566 4138 1362 3434
Q 1159 2731 1159 2009
Q 1159 1288 1364 580
Q 1569 -128 1984 -844
L 1484 -844
Q 1016 -109 783 600
Q 550 1309 550 2009
Q 550 2706 781 3412
Q 1013 4119 1484 4856
L 1984 4856
z
" transform="scale(0.015625)"/>
       <path id="DejaVuSans-6d" d="M 3328 2828
Q 3544 3216 3844 3400
Q 4144 3584 4550 3584
Q 5097 3584 5394 3201
Q 5691 2819 5691 2113
L 5691 0
L 5113 0
L 5113 2094
Q 5113 2597 4934 2840
Q 4756 3084 4391 3084
Q 3944 3084 3684 2787
Q 3425 2491 3425 1978
L 3425 0
L 2847 0
L 2847 2094
Q 2847 2600 2669 2842
Q 2491 3084 2119 3084
Q 1678 3084 1418 2786
Q 1159 2488 1159 1978
L 1159 0
L 581 0
L 581 3500
L 1159 3500
L 1159 2956
Q 1356 3278 1631 3431
Q 1906 3584 2284 3584
Q 2666 3584 2933 3390
Q 3200 3197 3328 2828
z
" transform="scale(0.015625)"/>
       <path id="DejaVuSans-29" d="M 513 4856
L 1013 4856
Q 1481 4119 1714 3412
Q 1947 2706 1947 2009
Q 1947 1309 1714 600
Q 1481 -109 1013 -844
L 513 -844
Q 928 -128 1133 580
Q 1338 1288 1338 2009
Q 1338 2731 1133 3434
Q 928 4138 513 4856
z
" transform="scale(0.015625)"/>
      </defs>
      <use xlink:href="#DejaVuSans-41"/>
      <use xlink:href="#DejaVuSans-2a" transform="translate(68.408203 0)"/>
      <use xlink:href="#DejaVuSans-20" transform="translate(118.408203 0)"/>
      <use xlink:href="#DejaVuSans-2212" transform="translate(150.195312 0)"/>
      <use xlink:href="#DejaVuSans-20" transform="translate(233.984375 0)"/>
      <use xlink:href="#DejaVuSans-44" transform="translate(265.771484 0)"/>
      <use xlink:href="#DejaVuSans-69" transform="translate(342.773438 0)"/>
      <use xlink:href="#DejaVuSans-6a" transform="translate(370.556641 0)"/>
      <use xlink:href="#DejaVuSans-6b" transform="translate(398.339844 0)"/>
      <use xlink:href="#DejaVuSans-73" transform="translate(456.25 0)"/>
      <use xlink:href="#DejaVuSans-74" transform="translate(508.349609 0)"/>
      <use xlink:href="#DejaVuSans-72" transform="translate(547.558594 0)"/>
      <use xlink:href="#DejaVuSans-61" transform="translate(588.671875 0)"/>
      <use xlink:href="#DejaVuSans-20" transform="translate(649.951172 0)"/>
      <use xlink:href="#DejaVuSans-63" transform="translate(681.738281 0)"/>
      <use xlink:href="#DejaVuSans-6f" transform="translate(736.71875 0)"/>
      <use xlink:href="#DejaVuSans-73" transform="translate(797.900391 0)"/>
      <use xlink:href="#DejaVuSans-74" transform="translate(850 0)"/>
      <use xlink:href="#DejaVuSans-20" transform="translate(889.208984 0)"/>
      <use xlink:href="#DejaVuSans-28" transform="translate(920.996094 0)"/>
      <use xlink:href="#DejaVuSans-6d" transform="translate(960.009766 0)"/>
      <use xlink:href="#DejaVuSans-29" transform="translate(1057.421875 0)"/>
     </g>
    </g>
   </g>
   <g id="line2d_14">
    <path d="M 58.523438 113.898125
L 489.423437 113.898125
" clip-path="url(#p5bad05ee0e)" style="fill: none; stroke: #555555; stroke-linecap: square"/>
   </g>
   <g id="patch_3">
    <path d="M 58.523438 205.478125
L 58.523438 22.318125
" style="fill: none; stroke: #000000; stroke-width: 0.8; stroke-linejoin: miter; stroke-linecap: square"/>
   </g>
   <g id="patch_4">
    <path d="M 489.423437 205.478125
L 489.423437 22.318125
" style="fill: none; stroke: #000000; stroke-width: 0.8; stroke-linejoin: miter; stroke-linecap: square"/>
   </g>
   <g id="patch_5">
    <path d="M 58.523438 205.478125
L 489.423438 205.478125
" style="fill: none; stroke: #000000; stroke-width: 0.8; stroke-linejoin: miter; stroke-linecap: square"/>
   </g>
   <g id="patch_6">
    <path d="M 58.523438 22.318125
L 489.423438 22.318125
" style="fill: none; stroke: #000000; stroke-width: 0.8; stroke-linejoin: miter; stroke-linecap: square"/>
   </g>
   <g id="text_16">
    <!-- Optimal directed-road cost agreement -->
    <g transform="translate(158.868125 16.318125) scale(0.12 -0.12)">
     <defs>
      <path id="DejaVuSans-4f" d="M 2522 4238
Q 1834 4238 1429 3725
Q 1025 3213 1025 2328
Q 1025 1447 1429 934
Q 1834 422 2522 422
Q 3209 422 3611 934
Q 4013 1447 4013 2328
Q 4013 3213 3611 3725
Q 3209 4238 2522 4238
z
M 2522 4750
Q 3503 4750 4090 4092
Q 4678 3434 4678 2328
Q 4678 1225 4090 567
Q 3503 -91 2522 -91
Q 1538 -91 948 565
Q 359 1222 359 2328
Q 359 3434 948 4092
Q 1538 4750 2522 4750
z
" transform="scale(0.015625)"/>
      <path id="DejaVuSans-6c" d="M 603 4863
L 1178 4863
L 1178 0
L 603 0
L 603 4863
z
" transform="scale(0.015625)"/>
      <path id="DejaVuSans-64" d="M 2906 2969
L 2906 4863
L 3481 4863
L 3481 0
L 2906 0
L 2906 525
Q 2725 213 2448 61
Q 2172 -91 1784 -91
Q 1150 -91 751 415
Q 353 922 353 1747
Q 353 2572 751 3078
Q 1150 3584 1784 3584
Q 2172 3584 2448 3432
Q 2725 3281 2906 2969
z
M 947 1747
Q 947 1113 1208 752
Q 1469 391 1925 391
Q 2381 391 2643 752
Q 2906 1113 2906 1747
Q 2906 2381 2643 2742
Q 2381 3103 1925 3103
Q 1469 3103 1208 2742
Q 947 2381 947 1747
z
" transform="scale(0.015625)"/>
      <path id="DejaVuSans-2d" d="M 313 2009
L 1997 2009
L 1997 1497
L 313 1497
L 313 2009
z
" transform="scale(0.015625)"/>
      <path id="DejaVuSans-67" d="M 2906 1791
Q 2906 2416 2648 2759
Q 2391 3103 1925 3103
Q 1463 3103 1205 2759
Q 947 2416 947 1791
Q 947 1169 1205 825
Q 1463 481 1925 481
Q 2391 481 2648 825
Q 2906 1169 2906 1791
z
M 3481 434
Q 3481 -459 3084 -895
Q 2688 -1331 1869 -1331
Q 1566 -1331 1297 -1286
Q 1028 -1241 775 -1147
L 775 -588
Q 1028 -725 1275 -790
Q 1522 -856 1778 -856
Q 2344 -856 2625 -561
Q 2906 -266 2906 331
L 2906 616
Q 2728 306 2450 153
Q 2172 0 1784 0
Q 1141 0 747 490
Q 353 981 353 1791
Q 353 2603 747 3093
Q 1141 3584 1784 3584
Q 2172 3584 2450 3431
Q 2728 3278 2906 2969
L 2906 3500
L 3481 3500
L 3481 434
z
" transform="scale(0.015625)"/>
     </defs>
     <use xlink:href="#DejaVuSans-4f"/>
     <use xlink:href="#DejaVuSans-70" transform="translate(78.710938 0)"/>
     <use xlink:href="#DejaVuSans-74" transform="translate(142.1875 0)"/>
     <use xlink:href="#DejaVuSans-69" transform="translate(181.396484 0)"/>
     <use xlink:href="#DejaVuSans-6d" transform="translate(209.179688 0)"/>
     <use xlink:href="#DejaVuSans-61" transform="translate(306.591797 0)"/>
     <use xlink:href="#DejaVuSans-6c" transform="translate(367.871094 0)"/>
     <use xlink:href="#DejaVuSans-20" transform="translate(395.654297 0)"/>
     <use xlink:href="#DejaVuSans-64" transform="translate(427.441406 0)"/>
     <use xlink:href="#DejaVuSans-69" transform="translate(490.917969 0)"/>
     <use xlink:href="#DejaVuSans-72" transform="translate(518.701172 0)"/>
     <use xlink:href="#DejaVuSans-65" transform="translate(557.564453 0)"/>
     <use xlink:href="#DejaVuSans-63" transform="translate(619.087891 0)"/>
     <use xlink:href="#DejaVuSans-74" transform="translate(674.068359 0)"/>
     <use xlink:href="#DejaVuSans-65" transform="translate(713.277344 0)"/>
     <use xlink:href="#DejaVuSans-64" transform="translate(774.800781 0)"/>
     <use xlink:href="#DejaVuSans-2d" transform="translate(838.277344 0)"/>
     <use xlink:href="#DejaVuSans-72" transform="translate(874.361328 0)"/>
     <use xlink:href="#DejaVuSans-6f" transform="translate(913.224609 0)"/>
     <use xlink:href="#DejaVuSans-61" transform="translate(974.40625 0)"/>
     <use xlink:href="#DejaVuSans-64" transform="translate(1035.685547 0)"/>
     <use xlink:href="#DejaVuSans-20" transform="translate(1099.162109 0)"/>
     <use xlink:href="#DejaVuSans-63" transform="translate(1130.949219 0)"/>
     <use xlink:href="#DejaVuSans-6f" transform="translate(1185.929688 0)"/>
     <use xlink:href="#DejaVuSans-73" transform="translate(1247.111328 0)"/>
     <use xlink:href="#DejaVuSans-74" transform="translate(1299.210938 0)"/>
     <use xlink:href="#DejaVuSans-20" transform="translate(1338.419922 0)"/>
     <use xlink:href="#DejaVuSans-61" transform="translate(1370.207031 0)"/>
     <use xlink:href="#DejaVuSans-67" transform="translate(1431.486328 0)"/>
     <use xlink:href="#DejaVuSans-72" transform="translate(1494.962891 0)"/>
     <use xlink:href="#DejaVuSans-65" transform="translate(1533.826172 0)"/>
     <use xlink:href="#DejaVuSans-65" transform="translate(1595.349609 0)"/>
     <use xlink:href="#DejaVuSans-6d" transform="translate(1656.873047 0)"/>
     <use xlink:href="#DejaVuSans-65" transform="translate(1754.285156 0)"/>
     <use xlink:href="#DejaVuSans-6e" transform="translate(1815.808594 0)"/>
     <use xlink:href="#DejaVuSans-74" transform="translate(1879.1875 0)"/>
    </g>
   </g>
  </g>
 </g>
 <defs>
  <clipPath id="p5bad05ee0e">
   <rect x="58.523438" y="22.318125" width="430.9" height="183.16"/>
  </clipPath>
 </defs>
</svg>
